<svg xmlns="http://www.w3.org/2000/svg" width="386.918" height="99.479" viewBox="0 0 386.918 99.479">
  <g id="Group_8" data-name="Group 8" transform="translate(-89.53 -420.9)">
    <g id="Group_1" data-name="Group 1" transform="translate(89.53 420.9)">
      <path id="Path_1" data-name="Path 1" d="M201.2,503.069c-4.885,4.885-9.378,9.63-14.211,14-.976.882-3.425.873-4.879.368a111.213,111.213,0,0,1-31.93-17.933,136.184,136.184,0,0,1-37.6-45.139c-7.056-13.676-7.125-13.64,3.664-24.431l5.83-5.83C134.6,464.261,160.615,490.465,201.2,503.069Z" transform="translate(-74.835 -418.302)" fill="#dd3119"/>
      <path id="Path_2" data-name="Path 2" d="M142.956,482.884,129.47,497.375a135.372,135.372,0,0,1-25.84-32.761c-7.529-13.406-7.618-13.374,2.793-24.558l5.607-6.024C119.014,453.91,129.273,470.205,142.956,482.884Z" transform="translate(-82.448 -410.247)" fill="#dd3119"/>
      <path id="Path_3" data-name="Path 3" d="M116.671,471.349,103.527,487.1a125.566,125.566,0,0,1-7.957-11.148c-8.241-12.981-8.328-12.945,1.462-24.674l5.274-6.319A135.841,135.841,0,0,0,116.671,471.349Z" transform="translate(-89.53 -401.386)" fill="#dd3119"/>
      <path id="Path_4" data-name="Path 4" d="M123.59,443.209,135.145,420.9l-18.436,4.128c.889,2.952,1.934,6.075,3.17,9.328C121.081,437.521,122.333,440.474,123.59,443.209Z" transform="translate(-67.482 -420.9)" fill="#dd3119"/>
    </g>
    <g id="Group_7" data-name="Group 7" transform="translate(200.35 442.891)">
      <g id="Group_6" data-name="Group 6">
        <g id="Group_3" data-name="Group 3">
          <g id="Group_2" data-name="Group 2">
            <path id="Path_5" data-name="Path 5" d="M172.831,465.822,158.3,465.57l-2.454,6.761-10.855-.192,15.589-38.886,11.11.2L185.9,472.857l-10.852-.192Zm-2.565-7.782-4.34-13.109-4.793,12.948Z" transform="translate(-144.987 -433.253)" fill="#2c366d"/>
            <path id="Path_6" data-name="Path 6" d="M160.411,472.5l7.329-39.033,10.072.178,7.476,21.006,8.155-20.735,10.069.178,5.963,39.262-10.126-.175-2.983-22.593-9.631,22.372-4.052-.071-8.378-22.686-3.769,22.471Z" transform="translate(-116.798 -432.855)" fill="#2c366d"/>
            <path id="Path_7" data-name="Path 7" d="M203.144,444.726a12.531,12.531,0,0,0-3.286-2.059,8.918,8.918,0,0,0-3.209-.7,5.221,5.221,0,0,0-3.235.879,2.907,2.907,0,0,0-1.289,2.418,2.41,2.41,0,0,0,.594,1.725,5.392,5.392,0,0,0,1.612,1.2,14,14,0,0,0,2.273.9q1.264.386,2.505.823a15.694,15.694,0,0,1,7.213,4.567,10.966,10.966,0,0,1,2.186,7.281,14.122,14.122,0,0,1-1.108,5.435,11.377,11.377,0,0,1-3.034,4.128,13.657,13.657,0,0,1-4.821,2.618,20.021,20.021,0,0,1-6.43.848,23.562,23.562,0,0,1-13.677-4.654l4.5-8.127a17.862,17.862,0,0,0,4.468,3.091,10.883,10.883,0,0,0,4.394,1.063,5.259,5.259,0,0,0,3.732-1.08,3.534,3.534,0,0,0,.981-4.111,3.335,3.335,0,0,0-1.015-1.21,8.349,8.349,0,0,0-1.878-1.046q-1.162-.488-2.813-1.086c-1.309-.441-2.59-.919-3.846-1.445a12.144,12.144,0,0,1-3.339-2.059,9.258,9.258,0,0,1-2.333-3.184,11.071,11.071,0,0,1-.823-4.815,13.884,13.884,0,0,1,1.049-5.254,11.647,11.647,0,0,1,2.771-4,12.062,12.062,0,0,1,4.3-2.55,16.162,16.162,0,0,1,5.652-.837,24.8,24.8,0,0,1,6.062.913,26.742,26.742,0,0,1,6.026,2.469Z" transform="translate(-82.025 -432.858)" fill="#2c366d"/>
          </g>
        </g>
        <g id="Group_5" data-name="Group 5" transform="translate(137.547 0.922)">
          <g id="Group_4" data-name="Group 4">
            <path id="Path_8" data-name="Path 8" d="M202.973,436.214l-6.1-.107-.074,4.208,5.884.1-.042,2.483-5.887-.1-.144,8.336-2.641-.045.305-17.512,8.743.153Z" transform="translate(-193.011 -433.579)" fill="#2c366d"/>
            <path id="Path_9" data-name="Path 9" d="M197.948,435.35a1.58,1.58,0,0,1,.506-1.148,1.666,1.666,0,0,1,2.35.042,1.564,1.564,0,0,1,.467,1.173,1.615,1.615,0,0,1-.509,1.173,1.565,1.565,0,0,1-1.176.466,1.661,1.661,0,0,1-1.637-1.708ZM200.8,440l-.2,11.045L198.061,451l.192-11.048Z" transform="translate(-185.741 -433.289)" fill="#2c366d"/>
            <path id="Path_10" data-name="Path 10" d="M200.226,436.108l2.562.045-.017,1.021a4.194,4.194,0,0,1,3.04-1.278,3.812,3.812,0,0,1,2.98,1.27,4.962,4.962,0,0,1,.874,3.385l-.122,6.769-2.562-.045.107-6.167a4.056,4.056,0,0,0-.41-2.265,1.831,1.831,0,0,0-1.6-.665,1.963,1.963,0,0,0-1.815.809,5.737,5.737,0,0,0-.574,2.881l-.093,5.33-2.562-.045Z" transform="translate(-181.929 -429.345)" fill="#2c366d"/>
            <path id="Path_11" data-name="Path 11" d="M213.151,436.335l2.562.048-.192,11.045-2.562-.045.017-1.157a4.9,4.9,0,0,1-7.174-.308,6.153,6.153,0,0,1-1.414-4.244,5.951,5.951,0,0,1,1.558-4.111,4.781,4.781,0,0,1,3.747-1.592,4.72,4.72,0,0,1,3.436,1.648ZM207,441.719a3.82,3.82,0,0,0,.806,2.6,2.772,2.772,0,0,0,2.18,1.049,2.927,2.927,0,0,0,2.307-.936,4.2,4.2,0,0,0,.091-5.126,2.888,2.888,0,0,0-2.251-1.027,2.827,2.827,0,0,0-2.217.959A3.688,3.688,0,0,0,207,441.719Z" transform="translate(-173.974 -429.21)" fill="#2c366d"/>
            <path id="Path_12" data-name="Path 12" d="M209.658,436.271l2.559.045-.017,1.021a4.178,4.178,0,0,1,3.037-1.275,3.828,3.828,0,0,1,2.989,1.267,4.987,4.987,0,0,1,.868,3.388l-.119,6.769-2.562-.045.107-6.17a4.029,4.029,0,0,0-.413-2.265,1.831,1.831,0,0,0-1.6-.664,1.977,1.977,0,0,0-1.818.809,5.773,5.773,0,0,0-.571,2.881l-.093,5.333-2.562-.045Z" transform="translate(-164.696 -429.043)" fill="#2c366d"/>
            <path id="Path_13" data-name="Path 13" d="M223.025,436.979l-.059,3.39a6.244,6.244,0,0,0-1.541-1.49,3.031,3.031,0,0,0-1.592-.438,3.171,3.171,0,0,0-2.412.97,3.531,3.531,0,0,0-1,2.511,3.633,3.633,0,0,0,.874,2.567,3.106,3.106,0,0,0,2.353,1.041,3.217,3.217,0,0,0,1.629-.37,6.475,6.475,0,0,0,1.629-1.468l-.059,3.368a6.758,6.758,0,0,1-3.125.752,5.936,5.936,0,0,1-4.256-1.733,5.509,5.509,0,0,1-1.651-4.168,5.6,5.6,0,0,1,1.815-4.142,5.92,5.92,0,0,1,4.321-1.629A6.438,6.438,0,0,1,223.025,436.979Z" transform="translate(-156.739 -428.901)" fill="#2c366d"/>
            <path id="Path_14" data-name="Path 14" d="M228.3,442.727l-7.915-.139a3.342,3.342,0,0,0,.846,2.183,2.682,2.682,0,0,0,1.991.828,2.6,2.6,0,0,0,1.586-.427,6.423,6.423,0,0,0,1.425-1.651l2.135,1.239a8.72,8.72,0,0,1-1.08,1.439,5.871,5.871,0,0,1-1.21.978,4.74,4.74,0,0,1-1.383.546,6.713,6.713,0,0,1-1.6.156,5.205,5.205,0,0,1-3.939-1.657,5.965,5.965,0,0,1-1.425-4.27,6.129,6.129,0,0,1,1.524-4.213,5.53,5.53,0,0,1,7.739.088,6.124,6.124,0,0,1,1.332,4.3Zm-2.585-2.132a2.443,2.443,0,0,0-2.536-2.087,2.686,2.686,0,0,0-.877.127,2.536,2.536,0,0,0-.755.4,2.625,2.625,0,0,0-.58.63,3.136,3.136,0,0,0-.379.843Z" transform="translate(-149.588 -428.784)" fill="#2c366d"/>
            <path id="Path_15" data-name="Path 15" d="M232.578,442.132,235.665,446l.107-.11q.518-.547.981-1.072t.894-1.063l1.691,1.8c-.218.3-.5.648-.854,1.041s-.769.846-1.253,1.36l3.176,4.061-3.289-.057-1.714-2.174a6.981,6.981,0,0,1-5.042,2.4,5.646,5.646,0,0,1-3.925-1.555,4.89,4.89,0,0,1-1.521-3.724,5.154,5.154,0,0,1,2.593-4.312l1.159-.763a.373.373,0,0,0,.082-.054c.037-.031.091-.071.161-.122a5.437,5.437,0,0,1-1.674-3.673,3.823,3.823,0,0,1,1.207-2.859,4.7,4.7,0,0,1,6.026.071,3.532,3.532,0,0,1,1.131,2.743,3.478,3.478,0,0,1-.681,2.042A11.185,11.185,0,0,1,232.578,442.132Zm-2.124,1.451-.147.1a12.823,12.823,0,0,0-2.248,1.764,2.2,2.2,0,0,0-.6,1.428,2.986,2.986,0,0,0,2.819,2.921q1.531.026,3.563-1.948Zm.628-3.337.22-.158c.37-.269.684-.509.928-.713a3.32,3.32,0,0,0,.532-.52,1.6,1.6,0,0,0,.359-1.026,1.461,1.461,0,0,0-.447-1.131,1.781,1.781,0,0,0-1.241-.452,1.732,1.732,0,0,0-1.207.421,1.348,1.348,0,0,0-.506,1.069,2.372,2.372,0,0,0,.585,1.533l.645.806A1.247,1.247,0,0,0,231.082,440.246Z" transform="translate(-136.452 -432.704)" fill="#2c366d"/>
            <path id="Path_16" data-name="Path 16" d="M193.631,459.587l4.01-18.758,5.774,13.711,6.467-13.5,2.983,18.883-2.712-.048-1.5-10.6-5.384,11.288-4.838-11.477-2.061,10.55Z" transform="translate(-193.631 -420.329)" fill="#2c366d"/>
            <path id="Path_17" data-name="Path 17" d="M210.179,443.8l2.562.042-.192,11.045-2.562-.042.017-1.159a4.9,4.9,0,0,1-7.174-.305,6.138,6.138,0,0,1-1.411-4.244,5.975,5.975,0,0,1,1.558-4.114,4.785,4.785,0,0,1,3.747-1.592,4.692,4.692,0,0,1,3.43,1.651Zm-6.153,5.381a3.83,3.83,0,0,0,.806,2.6,2.776,2.776,0,0,0,2.18,1.049,2.909,2.909,0,0,0,2.307-.936,4.193,4.193,0,0,0,.09-5.124,2.887,2.887,0,0,0-2.251-1.026,2.817,2.817,0,0,0-2.217.959A3.683,3.683,0,0,0,204.026,449.178Z" transform="translate(-179.4 -415.583)" fill="#2c366d"/>
            <path id="Path_18" data-name="Path 18" d="M206.686,443.654l2.562.042-.017,1.024a4.184,4.184,0,0,1,3.037-1.275,3.811,3.811,0,0,1,2.989,1.267,5,5,0,0,1,.865,3.385L216,454.868l-2.559-.048.107-6.167a4.021,4.021,0,0,0-.413-2.265,1.83,1.83,0,0,0-1.6-.665,1.974,1.974,0,0,0-1.818.809,5.765,5.765,0,0,0-.571,2.881l-.093,5.33-2.562-.045Z" transform="translate(-170.122 -415.55)" fill="#2c366d"/>
            <path id="Path_19" data-name="Path 19" d="M219.611,443.726l2.562.048-.192,11.045-2.565-.045.02-1.156a4.9,4.9,0,0,1-7.177-.306,6.175,6.175,0,0,1-1.411-4.244,5.957,5.957,0,0,1,1.558-4.114,4.78,4.78,0,0,1,3.747-1.592,4.7,4.7,0,0,1,3.433,1.649Zm-6.153,5.387a3.816,3.816,0,0,0,.806,2.6,2.779,2.779,0,0,0,2.18,1.049,2.927,2.927,0,0,0,2.307-.936,4.2,4.2,0,0,0,.09-5.126,2.9,2.9,0,0,0-2.254-1.024,2.8,2.8,0,0,0-2.214.959A3.668,3.668,0,0,0,213.458,449.113Z" transform="translate(-162.167 -415.702)" fill="#2c366d"/>
            <path id="Path_20" data-name="Path 20" d="M226.884,454.594c-.006.523-.034.984-.073,1.38a10.071,10.071,0,0,1-.161,1.046,4.709,4.709,0,0,1-1.1,2.124A5.164,5.164,0,0,1,221.4,460.8a5.5,5.5,0,0,1-3.614-1.253,4.877,4.877,0,0,1-1.643-3.424l2.565.045a2.944,2.944,0,0,0,.464,1.27,2.741,2.741,0,0,0,2.3,1.075q2.8.047,2.859-3.39l.028-1.541a4.792,4.792,0,0,1-3.532,1.493,4.718,4.718,0,0,1-3.667-1.7,6.05,6.05,0,0,1-1.38-4.165,6.393,6.393,0,0,1,1.419-4.083,4.7,4.7,0,0,1,3.865-1.725,4.467,4.467,0,0,1,3.444,1.615l.023-1.247,2.553.042Zm-2.355-5.276a3.716,3.716,0,0,0-.82-2.59,2.832,2.832,0,0,0-2.214-1.026,2.736,2.736,0,0,0-2.307,1.038,4.441,4.441,0,0,0-.088,4.965,2.727,2.727,0,0,0,2.268,1.094,2.8,2.8,0,0,0,2.333-1.026A3.81,3.81,0,0,0,224.529,449.318Z" transform="translate(-153.168 -415.632)" fill="#2c366d"/>
            <path id="Path_21" data-name="Path 21" d="M231.26,450.01l-7.915-.141a3.349,3.349,0,0,0,.845,2.183,2.706,2.706,0,0,0,1.994.831,2.607,2.607,0,0,0,1.583-.427A6.551,6.551,0,0,0,229.2,450.8l2.129,1.239a8.3,8.3,0,0,1-1.074,1.439,5.818,5.818,0,0,1-1.213.978,4.681,4.681,0,0,1-1.383.549,6.69,6.69,0,0,1-1.6.153,5.2,5.2,0,0,1-3.939-1.657,5.953,5.953,0,0,1-1.425-4.27,6.114,6.114,0,0,1,1.524-4.213,5.533,5.533,0,0,1,7.739.09,6.107,6.107,0,0,1,1.329,4.3Zm-2.582-2.135a2.444,2.444,0,0,0-2.539-2.084,2.664,2.664,0,0,0-.874.124,2.491,2.491,0,0,0-1.335,1.026,3.033,3.033,0,0,0-.379.845Z" transform="translate(-144.18 -415.473)" fill="#2c366d"/>
            <path id="Path_22" data-name="Path 22" d="M225.578,443.785l2.551.042-.02,1.024a5.35,5.35,0,0,1,1.281-1.024,3.068,3.068,0,0,1,1.4-.26,3.391,3.391,0,0,1,2.932,1.688A3.821,3.821,0,0,1,237,443.678q3.728.068,3.653,4.589l-.119,6.829-2.562-.045.1-6.133a4.74,4.74,0,0,0-.345-2.254,1.4,1.4,0,0,0-1.292-.693,1.675,1.675,0,0,0-1.552.766,5.153,5.153,0,0,0-.526,2.545l-.1,5.7-2.565-.043.107-6.1c.034-1.965-.517-2.961-1.651-2.977a1.7,1.7,0,0,0-1.583.777,4.994,4.994,0,0,0-.54,2.531l-.1,5.7-2.551-.042Z" transform="translate(-135.6 -415.325)" fill="#2c366d"/>
            <path id="Path_23" data-name="Path 23" d="M242.3,450l-7.915-.139a3.341,3.341,0,0,0,.845,2.18,2.682,2.682,0,0,0,1.994.829,2.588,2.588,0,0,0,1.583-.424,6.555,6.555,0,0,0,1.428-1.654l2.132,1.238a8.592,8.592,0,0,1-1.077,1.439,5.637,5.637,0,0,1-1.213.979,4.684,4.684,0,0,1-1.383.548,6.684,6.684,0,0,1-1.6.153,5.194,5.194,0,0,1-3.939-1.654,5.955,5.955,0,0,1-1.422-4.27,6.12,6.12,0,0,1,1.521-4.216,5.534,5.534,0,0,1,7.739.09,6.113,6.113,0,0,1,1.332,4.3Zm-2.582-2.132a2.446,2.446,0,0,0-2.539-2.087,2.664,2.664,0,0,0-.874.124,2.545,2.545,0,0,0-.755.4,2.577,2.577,0,0,0-.58.631,2.979,2.979,0,0,0-.379.843Z" transform="translate(-123.999 -415.49)" fill="#2c366d"/>
            <path id="Path_24" data-name="Path 24" d="M236.62,443.717l2.562.048-.02,1.018a4.191,4.191,0,0,1,3.04-1.275,3.836,3.836,0,0,1,2.986,1.267,5,5,0,0,1,.868,3.385l-.119,6.772-2.559-.045.107-6.17a4.06,4.06,0,0,0-.413-2.265,1.83,1.83,0,0,0-1.6-.662,1.965,1.965,0,0,0-1.818.809,5.733,5.733,0,0,0-.571,2.881l-.093,5.33-2.565-.045Z" transform="translate(-115.419 -415.435)" fill="#2c366d"/>
            <path id="Path_25" data-name="Path 25" d="M244.267,448.7l-.153,8.664-2.55-.045.15-8.664-1.089-.02.042-2.381,1.089.02.068-4.049,2.553.042-.068,4.049,1.985.034-.045,2.387Z" transform="translate(-107.743 -417.77)" fill="#2c366d"/>
          </g>
        </g>
      </g>
    </g>
  </g>
</svg>
